<?xml version="1.0" encoding="utf-8"?>
<!-- Generator: Adobe Illustrator 22.0.1, SVG Export Plug-In . SVG Version: 6.00 Build 0)  -->
<svg version="1.1" xmlns="http://www.w3.org/2000/svg" xmlns:xlink="http://www.w3.org/1999/xlink" x="0px" y="0px"
	 viewBox="0 0 401.1 179.1" style="enable-background:new 0 0 401.1 179.1;" xml:space="preserve">
<style type="text/css">
	.st0{fill: none;stroke:#4769A1;stroke-miterlimit:10;}
</style>
<g id="Layer_5">
</g>
<g id="Layer_2">
	<path class="st0" d="M330.2,73.4c0.1,0,0.3,0,0.5,0c1.6,0,3.1,0.2,4.6,0.7c1.8-1.9,4.3-3.1,7.2-3.1c5.4,0,9.8,4.4,9.8,9.8
		c0,0.9-0.1,1.8-0.4,2.6c2.9,0.5,5.4,2.4,6.6,5c1.1-0.9,2.6-1.4,4.1-1.4c3.8,0,6.8,3.1,6.8,6.8"/>
	<g>
		<line class="st0" x1="139.6" y1="13.7" x2="175.5" y2="13.7"/>
		<line class="st0" x1="132.4" y1="13.7" x2="136.7" y2="13.7"/>
		<line class="st0" x1="163.8" y1="9" x2="178.9" y2="9"/>
		<path class="st0" d="M173.9,24.1c1.9-2.3,4.7-3.8,7.9-3.8c0.3,0,0.7,0,1,0.1c-2.7-1.8-4.5-4.8-4.5-8.3c0-5.4,4.4-9.8,9.8-9.8
			c1.1,0,2.1,0.2,3,0.5c0.9-1.2,2.3-2,4-2c2.7,0,4.9,2.2,4.9,4.9c0,1.8-0.9,3.3-2.4,4.2c0.1,0.5,0.2,1.1,0.2,1.7c1-0.2,2-0.3,3-0.3
			c1.6,0,3.2,0.2,4.7,0.7c1.9-2,4.5-3.2,7.4-3.2c5.6,0,10.2,4.6,10.2,10.2c0,0.9-0.1,1.9-0.4,2.7c3,0.5,5.6,2.5,6.8,5.2
			c1.2-0.9,2.6-1.4,4.2-1.4"/>
	</g>
	<g>
		<path class="st0" d="M218.5,105.1c2.4-2.4,5.7-3.9,9.3-3.9l0,0c7.2,0,13,5.8,13,13c0.1,16.2,3.7,21.4,3.7,28.6
			c0,9.2-7.5,16.7-16.7,16.7l0,0c-3.5,0-6.7-1-9.3-2.8"/>
		<line class="st0" x1="227.8" y1="175.8" x2="227.8" y2="114"/>
		<path class="st0" d="M234.7,133.3c0.6,2.7-0.4,5.9-2.5,8.2l0,0c-1.3,1.4-2.8,2.4-4.4,2.9"/>
		<path class="st0" d="M227.8,131.6c-2.8,0.2-5.8-1.2-7.8-3.6l0,0"/>
		<path class="st0" d="M227.8,120.9c-3.1,0.2-5.8-2.1-6-5.3l0,0"/>
		<path class="st0" d="M234,146.2c0.3,3.6-2.4,6.8-6.1,7.1l0,0"/>
		<path class="st0" d="M238.7,137.8c-0.8,2.6-3.5,4-6.1,3.2l0,0"/>
	</g>
	<g>
		<line class="st0" x1="0" y1="175.8" x2="401.1" y2="175.8"/>
		<line class="st0" x1="22.6" y1="178.4" x2="378.5" y2="178.4"/>
	</g>
	<g>
		<line class="st0" x1="97.1" y1="96.5" x2="83.4" y2="96.5"/>
		<line class="st0" x1="138.2" y1="96.5" x2="124.5" y2="96.5"/>
		<path class="st0" d="M95.6,96.5V76.6 M84.6,76.6v19.9"/>
		<polyline class="st0" points="88.6,76.6 84.2,76.6 83.5,73.4 88.5,73.4 		"/>
		<polyline class="st0" points="91.6,73.4 96.7,73.4 96,76.6 91.5,76.6 		"/>
		<polygon class="st0" points="88.4,72.1 91.7,72.1 91.5,76.6 88.6,76.6 		"/>
		<path class="st0" d="M136.9,96.5V76.6 M125.8,76.6v19.9"/>
		<polyline class="st0" points="129.9,76.6 125.5,76.6 124.8,73.4 129.8,73.4 		"/>
		<polyline class="st0" points="132.9,73.4 138,73.4 137.3,76.6 132.8,76.6 		"/>
		<polygon class="st0" points="129.7,72.1 133,72.1 132.8,76.6 129.9,76.6 		"/>
		<line class="st0" x1="119.3" y1="96.5" x2="102.2" y2="96.5"/>
		<polyline class="st0" points="109.3,76.6 103.2,76.6 102.5,73.4 109.2,73.4 		"/>
		<polyline class="st0" points="112.4,73.4 119.1,73.4 118.4,76.6 112.1,76.6 		"/>
		<polygon class="st0" points="109.2,72.1 112.4,72.1 112.3,76.6 109.3,76.6 		"/>
		<path class="st0" d="M118,96.5V76.6 M103.6,76.6v19.9"/>
		<polyline class="st0" points="119.4,69.6 119.4,69.6 120.3,64.9 		"/>
		<line class="st0" x1="101.2" y1="64.9" x2="102.1" y2="69.6"/>
		<line class="st0" x1="75" y1="135" x2="75" y2="69.6"/>
		<polyline class="st0" points="146.6,138.5 146.6,175.7 75,175.7 75,138.4 		"/>
		<line class="st0" x1="146.6" y1="69.6" x2="146.6" y2="134.7"/>
		<path class="st0" d="M78.3,57.8c10.7,0,20.2-8.6,20.5-19.2"/>
		<path class="st0" d="M122.7,38.6c0.4,10.6,9.8,19.2,20.5,19.2"/>
		<polygon class="st0" points="146.6,69.6 147.5,64.9 72.7,64.9 73.6,69.6 		"/>
		<polyline class="st0" points="125.4,138.5 146.6,138.5 146.6,134.7 121.4,134.7 		"/>
		<polyline class="st0" points="100.1,134.7 72.7,134.7 73.6,138.5 96.3,138.5 		"/>
		<g>
			<path class="st0" d="M114.9,27.7c3.8,1.6,6.5,5.4,6.5,9.8v1.1h4.5v-3.6"/>
			<path class="st0" d="M95.8,35.1v3.6l0,0h4.4v-1.1c0-4.4,2.7-8.2,6.6-9.8"/>
		</g>
		<rect x="143.3" y="56.1" class="st0" width="4.3" height="8.8"/>
		<rect x="74.1" y="56.1" class="st0" width="4.3" height="8.8"/>
		<path class="st0" d="M118.3,64.7V49.4c0-1.7-1.4-3.1-3.1-3.1c-1.7,0-3.1,1.4-3.1,3.1v15.3"/>
		<path class="st0" d="M109.5,64.7V49.4c0-1.7-1.4-3.1-3.1-3.1c-1.7,0-3.1,1.4-3.1,3.1v15.3"/>
		<polygon class="st0" points="130,103.5 132.8,103.5 132.6,108.1 130.1,108.1 		"/>
		<polygon class="st0" points="88.6,103.5 91.4,103.5 91.2,108.1 88.8,108.1 		"/>
		<polygon class="st0" points="109.4,102 112.2,102 112,106.5 109.6,106.5 		"/>
		<path class="st0" d="M130.1,106.1c-2.4,0.6-4.2,2.8-4.2,5.4v0.8v19.3v0.8h0.8h9.5h0.8v-0.8v-19.3v-0.8c0-2.6-1.8-4.8-4.2-5.4"/>
		<path class="st0" d="M88.7,106.1c-2.4,0.6-4.1,2.8-4.1,5.3v0.8v19.3v0.8h0.8h9.5h0.8v-0.8v-19.3v-0.8c0-2.6-1.8-4.8-4.3-5.4"/>
		<path class="st0" d="M109.5,104.4c-3.4,0.6-5.9,3.5-5.9,7.1v0.8v19.3v0.8h0.8h12.9h0.8v-0.8v-19.3v-0.8c0-3.5-2.5-6.5-5.9-7.1"/>
		<path class="st0" d="M102.6,134.3H119c3.8,0,6.8,3.1,6.8,6.8v2.5c-0.6,0-1.2,0.2-1.6,0.6c-0.8,0.9-2.2,0.9-3,0
			c-0.8-0.9-2.2-0.9-3,0c-0.8,0.9-2.2,0.9-3,0c-0.8-0.9-2.2-0.9-3,0c-0.8,0.9-2.2,0.9-3,0c-0.8-0.9-2.2-0.9-3,0
			c-0.8,0.9-2.2,0.9-3,0c-0.8-0.9-2.2-0.9-3,0c-0.8,0.9-2.2,0.9-3,0c-0.4-0.5-1-0.7-1.6-0.6v-2.5C95.7,137.3,98.8,134.3,102.6,134.3
			z"/>
		<rect x="108.8" y="23.3" class="st0" width="3.9" height="7.3"/>
		<path class="st0" d="M145.4,56.1l-6.3-21.1h-15.5c-1.1-5.4-5.6-9.5-10.9-10.3"/>
		<path class="st0" d="M76.2,56.1l6.3-21.1c0,0,15.7,0,15.7,0c1-5.3,5.3-9.5,10.7-10.3"/>
		<polyline class="st0" points="82.5,35.1 81.7,31.5 99.4,31.5 		"/>
		<polyline class="st0" points="139.2,35.1 140,31.5 122.4,31.5 		"/>
		<line class="st0" x1="95.6" y1="170" x2="125.9" y2="170"/>
		<line class="st0" x1="93.1" y1="172.8" x2="128.5" y2="172.8"/>
		<line class="st0" x1="97.7" y1="144.7" x2="97.7" y2="172.8"/>
		<line class="st0" x1="123.8" y1="144.9" x2="123.8" y2="172.8"/>
		<line class="st0" x1="126.5" y1="172.9" x2="126.5" y2="175.8"/>
		<line class="st0" x1="95" y1="172.9" x2="95" y2="175.8"/>
		<line class="st0" x1="118.2" y1="170" x2="118.2" y2="144.2"/>
		<line class="st0" x1="103.3" y1="170" x2="103.3" y2="144.2"/>
		<line class="st0" x1="97.7" y1="149.5" x2="124" y2="149.5"/>
		<line class="st0" x1="110.8" y1="149.5" x2="110.8" y2="170"/>
		<line class="st0" x1="97.6" y1="166.1" x2="124" y2="166.1"/>
		<path class="st0" d="M107.4,169.9v-6c0-1.9,1.5-3.4,3.4-3.4l0,0c1.9,0,3.4,1.5,3.4,3.4v6"/>
		<line class="st0" x1="78.3" y1="138.6" x2="78.3" y2="175.7"/>
		<line class="st0" x1="143.3" y1="138.6" x2="143.3" y2="175.7"/>
		<polyline class="st0" points="140.1,175.7 140.1,141.4 125.9,141.4 125.9,172.8 		"/>
		<line class="st0" x1="140.1" y1="166.3" x2="125.9" y2="166.3"/>
		<polyline class="st0" points="81.5,175.7 81.5,141.4 95.7,141.4 95.7,172.8 		"/>
		<line class="st0" x1="81.5" y1="166.3" x2="95.7" y2="166.3"/>
		<line class="st0" x1="140.1" y1="149.5" x2="125.9" y2="149.5"/>
		<line class="st0" x1="81.5" y1="149.5" x2="95.7" y2="149.5"/>
		<line class="st0" x1="84.5" y1="115.1" x2="95.6" y2="115.1"/>
		<line class="st0" x1="125.9" y1="115.1" x2="136.9" y2="115.1"/>
		<line class="st0" x1="103.6" y1="115.1" x2="117.9" y2="115.1"/>
		<line class="st0" x1="84.5" y1="84" x2="95.6" y2="84"/>
		<line class="st0" x1="125.9" y1="84" x2="136.9" y2="84"/>
		<line class="st0" x1="103.6" y1="84" x2="117.9" y2="84"/>
	</g>
	<g>
		<line class="st0" x1="146.8" y1="135" x2="146.8" y2="69.6"/>
		<polyline class="st0" points="218.5,138.5 218.5,175.7 146.8,175.7 146.8,138.4 		"/>
		<line class="st0" x1="218.5" y1="69.6" x2="218.5" y2="134.7"/>
		<polyline class="st0" points="146.8,69.6 219.8,69.6 219.8,69.6 220.8,64.9 147.5,64.9 		"/>
		<polyline class="st0" points="146.8,138.6 219.8,138.6 219.8,138.6 220.8,134.7 146.8,134.7 		"/>
		<polyline class="st0" points="145.9,56.1 145.9,38.6 219.4,38.6 219.4,64.9 147.5,64.9 		"/>
		<polygon class="st0" points="201.9,141.5 204.7,141.5 204.5,146.1 202.1,146.1 		"/>
		<path class="st0" d="M202,144c-3.4,0.6-5.9,3.5-5.9,7.1v0.8v23.1v0.8h0.8h12.9h0.8v-0.8v-23.1v-0.8c0-3.5-2.5-6.5-5.9-7.1"/>
		<line class="st0" x1="196.1" y1="151.9" x2="210.5" y2="151.9"/>
		<g>
			<g>
				<line class="st0" x1="168.6" y1="96.5" x2="153.4" y2="96.5"/>
				<polyline class="st0" points="159.5,76.6 154.4,76.6 153.7,73.4 159.4,73.4 				"/>
				<polyline class="st0" points="162.6,73.4 168.3,73.4 167.6,76.6 162.3,76.6 				"/>
				<polygon class="st0" points="159.4,72.1 162.6,72.1 162.5,76.6 159.5,76.6 				"/>
				<path class="st0" d="M167.2,96.5V76.6 M154.7,76.6v19.9"/>
				<line class="st0" x1="154.7" y1="84" x2="167.2" y2="84"/>
			</g>
			<g>
				<line class="st0" x1="190.3" y1="96.5" x2="175" y2="96.5"/>
				<polyline class="st0" points="181.2,76.6 176,76.6 175.3,73.4 181.1,73.4 				"/>
				<polyline class="st0" points="184.2,73.4 190,73.4 189.3,76.6 184,76.6 				"/>
				<polygon class="st0" points="181,72.1 184.3,72.1 184.1,76.6 181.2,76.6 				"/>
				<path class="st0" d="M188.9,96.5V76.6 M176.4,76.6v19.9"/>
				<line class="st0" x1="176.4" y1="84" x2="188.9" y2="84"/>
			</g>
			<g>
				<line class="st0" x1="211.9" y1="96.5" x2="196.7" y2="96.5"/>
				<polyline class="st0" points="202.9,76.6 197.7,76.6 197,73.4 202.7,73.4 				"/>
				<polyline class="st0" points="205.9,73.4 211.6,73.4 211,76.6 205.6,76.6 				"/>
				<polygon class="st0" points="202.7,72.1 205.9,72.1 205.8,76.6 202.8,76.6 				"/>
				<path class="st0" d="M210.6,96.5V76.6 M198,76.6v19.9"/>
				<line class="st0" x1="198" y1="84" x2="210.5" y2="84"/>
			</g>
		</g>
		<g>
			<g>
				<line class="st0" x1="168.6" y1="132.3" x2="153.4" y2="132.3"/>
				<polyline class="st0" points="159.5,112.4 154.4,112.4 153.7,109.2 159.4,109.2 				"/>
				<polyline class="st0" points="162.6,109.2 168.3,109.2 167.6,112.4 162.3,112.4 				"/>
				<polygon class="st0" points="159.4,107.9 162.6,107.9 162.5,112.5 159.5,112.5 				"/>
				<path class="st0" d="M167.2,132.3v-19.9 M154.7,112.5v19.9"/>
				<line class="st0" x1="154.7" y1="119.8" x2="167.2" y2="119.8"/>
			</g>
			<g>
				<line class="st0" x1="190.3" y1="132.3" x2="175" y2="132.3"/>
				<polyline class="st0" points="181.2,112.4 176,112.4 175.3,109.2 181.1,109.2 				"/>
				<polyline class="st0" points="184.2,109.2 190,109.2 189.3,112.4 184,112.4 				"/>
				<polygon class="st0" points="181,107.9 184.3,107.9 184.1,112.5 181.2,112.5 				"/>
				<path class="st0" d="M188.9,132.3v-19.9 M176.4,112.5v19.9"/>
				<line class="st0" x1="176.4" y1="119.8" x2="188.9" y2="119.8"/>
			</g>
			<g>
				<line class="st0" x1="211.9" y1="132.3" x2="196.7" y2="132.3"/>
				<polyline class="st0" points="202.9,112.4 197.7,112.4 197,109.2 202.7,109.2 				"/>
				<polyline class="st0" points="205.9,109.2 211.6,109.2 211,112.4 205.6,112.4 				"/>
				<polygon class="st0" points="202.7,107.9 205.9,107.9 205.8,112.5 202.8,112.5 				"/>
				<path class="st0" d="M210.6,132.3v-19.9 M198,112.5v19.9"/>
				<line class="st0" x1="198" y1="119.8" x2="210.5" y2="119.8"/>
			</g>
		</g>
		<line class="st0" x1="203.2" y1="151.9" x2="203.2" y2="175.6"/>
		<line class="st0" x1="196.1" y1="168.3" x2="210.5" y2="168.3"/>
		<line class="st0" x1="153.4" y1="128.1" x2="168.6" y2="128.1"/>
		<line class="st0" x1="196.7" y1="128.1" x2="211.9" y2="128.1"/>
		<line class="st0" x1="175" y1="128.1" x2="190.2" y2="128.1"/>
		<g>
			<rect x="156.3" y="43.9" class="st0" width="9.4" height="16.5"/>
			<line class="st0" x1="153" y1="60.4" x2="169" y2="60.4"/>
			<line class="st0" x1="156.3" y1="56.3" x2="163.7" y2="56.3"/>
			<line class="st0" x1="156.3" y1="53.2" x2="163.7" y2="53.2"/>
			<line class="st0" x1="156.3" y1="50.1" x2="163.7" y2="50.1"/>
			<line class="st0" x1="156.3" y1="47" x2="163.7" y2="47"/>
			<polyline class="st0" points="168,60.4 168,41.4 154,41.4 154,60.4 			"/>
		</g>
		<g>
			<rect x="177.9" y="43.9" class="st0" width="9.4" height="16.5"/>
			<line class="st0" x1="174.6" y1="60.4" x2="190.7" y2="60.4"/>
			<line class="st0" x1="177.9" y1="56.3" x2="185.3" y2="56.3"/>
			<line class="st0" x1="177.9" y1="53.2" x2="185.3" y2="53.2"/>
			<line class="st0" x1="177.9" y1="50.1" x2="185.3" y2="50.1"/>
			<line class="st0" x1="177.9" y1="47" x2="185.3" y2="47"/>
			<polyline class="st0" points="189.6,60.4 189.6,41.4 175.6,41.4 175.6,60.4 			"/>
		</g>
		<g>
			<rect x="199.6" y="43.9" class="st0" width="9.4" height="16.5"/>
			<line class="st0" x1="196.3" y1="60.4" x2="212.3" y2="60.4"/>
			<line class="st0" x1="199.6" y1="56.3" x2="206.9" y2="56.3"/>
			<line class="st0" x1="199.6" y1="53.2" x2="206.9" y2="53.2"/>
			<line class="st0" x1="199.6" y1="50.1" x2="206.9" y2="50.1"/>
			<line class="st0" x1="199.6" y1="47" x2="206.9" y2="47"/>
			<polyline class="st0" points="211.3,60.4 211.3,41.4 197.2,41.4 197.2,60.4 			"/>
		</g>
		<polyline class="st0" points="189.6,175.6 189.6,143.8 155.5,143.8 155.5,175.6 		"/>
		<line class="st0" x1="177.1" y1="144" x2="177.1" y2="175.6"/>
		<line class="st0" x1="189.6" y1="168.3" x2="155.5" y2="168.3"/>
		<line class="st0" x1="189.7" y1="151.9" x2="177.1" y2="151.9"/>
		<line class="st0" x1="155.5" y1="157.1" x2="177.1" y2="157.1"/>
		<line class="st0" x1="177.1" y1="153.8" x2="155.5" y2="153.8"/>
		<g>
			<line class="st0" x1="159.8" y1="155.3" x2="159.8" y2="146.1"/>
			<line class="st0" x1="164.1" y1="155.3" x2="164.1" y2="146.1"/>
			<line class="st0" x1="168.4" y1="155.3" x2="168.4" y2="146.1"/>
			<line class="st0" x1="172.8" y1="155.3" x2="172.8" y2="146.1"/>
		</g>
		<line class="st0" x1="158" y1="170.7" x2="174.7" y2="170.7"/>
		<line class="st0" x1="177.1" y1="164.3" x2="179.6" y2="164.3"/>
		<rect x="181.6" y="156.2" class="st0" width="3.6" height="4.6"/>
	</g>
	<line class="st0" x1="240.5" y1="141.1" x2="241.5" y2="142.1"/>
	<line class="st0" x1="235.7" y1="116.3" x2="236.7" y2="117.3"/>
	<line class="st0" x1="231" y1="126" x2="232" y2="127"/>
	<line class="st0" x1="223.4" y1="153.2" x2="224.4" y2="154.3"/>
	<line class="st0" x1="237.2" y1="150.2" x2="238.3" y2="151.2"/>
	<line class="st0" x1="221.8" y1="108.2" x2="222.8" y2="109.2"/>
	<g>
		<path class="st0" d="M32.2,125.6c0-2.9,2.4-5.3,5.3-5.3h3.4c2.9,0,5.3,2.4,5.3,5.3v50.4"/>
		<path class="st0" d="M34.8,128.2c0-1.5-1.2-2.6-2.6-2.6c-1.5,0-2.6,1.2-2.6,2.6c0,1.5,1.2,2.6,2.6,2.6
			C33.6,130.8,34.8,129.6,34.8,128.2z"/>
		<line class="st0" x1="44.5" y1="164" x2="47.8" y2="164"/>
		<line class="st0" x1="44.5" y1="166.7" x2="47.8" y2="166.7"/>
	</g>
	<g>
		<path class="st0" d="M236.2,125.6c0-2.9,2.4-5.3,5.3-5.3h3.4c2.9,0,5.3,2.4,5.3,5.3v50.4"/>
		<path class="st0" d="M238.9,128.2c0-1.5-1.2-2.6-2.6-2.6c-1.5,0-2.6,1.2-2.6,2.6c0,1.5,1.2,2.6,2.6,2.6
			C237.7,130.8,238.9,129.6,238.9,128.2z"/>
		<line class="st0" x1="248.5" y1="164" x2="251.8" y2="164"/>
		<line class="st0" x1="248.5" y1="166.7" x2="251.8" y2="166.7"/>
	</g>
	<g>
		<line class="st0" x1="334.8" y1="166" x2="356" y2="166"/>
		<line class="st0" x1="334.8" y1="168.6" x2="356" y2="168.6"/>
		<line class="st0" x1="334.8" y1="171.2" x2="356" y2="171.2"/>
		<line class="st0" x1="354.2" y1="166" x2="354.2" y2="175.6"/>
		<line class="st0" x1="336.6" y1="165.9" x2="336.6" y2="175.6"/>
	</g>
	<g>
		<line class="st0" x1="234" y1="175.6" x2="234" y2="168.3"/>
		<line class="st0" x1="222.8" y1="175.6" x2="222.8" y2="168.3"/>
	</g>
	<polyline class="st0" points="327.1,128.2 327.1,175.8 255.5,175.8 255.5,128.2 	"/>
	<g>
		<line class="st0" x1="255.5" y1="125.7" x2="255.5" y2="59.4"/>
		<line class="st0" x1="327.1" y1="59.4" x2="327.1" y2="125.4"/>
	</g>
	<g>
		<line class="st0" x1="255.5" y1="56.3" x2="255.5" y2="39.7"/>
		<line class="st0" x1="327.1" y1="39.7" x2="327.1" y2="56.2"/>
	</g>
	<g>
		<line class="st0" x1="278" y1="122.1" x2="262.8" y2="122.1"/>
		<g>
			<path class="st0" d="M275.9,122.1v-19.9h-11.1v19.9"/>
			<line class="st0" x1="264.8" y1="110.5" x2="275.9" y2="110.5"/>
			<line class="st0" x1="264.8" y1="119.7" x2="275.9" y2="119.7"/>
		</g>
	</g>
	<g>
		<line class="st0" x1="299.7" y1="122.1" x2="284.5" y2="122.1"/>
		<g>
			<polyline class="st0" points="297.6,122.1 297.6,102.2 286.5,102.2 286.5,122.1 			"/>
			<line class="st0" x1="286.4" y1="110.5" x2="297.6" y2="110.5"/>
			<line class="st0" x1="286.4" y1="119.7" x2="297.6" y2="119.7"/>
		</g>
	</g>
	<g>
		<line class="st0" x1="321.4" y1="122.1" x2="306.1" y2="122.1"/>
		<g>
			<path class="st0" d="M319.3,122.1v-19.9h-11.1v19.9"/>
			<line class="st0" x1="308.1" y1="110.5" x2="319.2" y2="110.5"/>
			<line class="st0" x1="308.1" y1="119.7" x2="319.2" y2="119.7"/>
		</g>
	</g>
	<g>
		<path class="st0" d="M275.9,166.3V136h-11.1v30.3"/>
		<line class="st0" x1="264.8" y1="141.9" x2="275.9" y2="141.9"/>
		<g>
			<line class="st0" x1="299.7" y1="155.9" x2="284.5" y2="155.9"/>
			<g>
				<polyline class="st0" points="297.6,155.9 297.6,136 286.5,136 286.5,155.9 				"/>
				<line class="st0" x1="286.4" y1="144.3" x2="297.6" y2="144.3"/>
				<line class="st0" x1="286.4" y1="153.5" x2="297.6" y2="153.5"/>
			</g>
		</g>
		<g>
			<line class="st0" x1="321.4" y1="155.9" x2="306.1" y2="155.9"/>
			<g>
				<path class="st0" d="M319.3,155.9V136h-11.1v19.9"/>
				<line class="st0" x1="308.1" y1="144.3" x2="319.2" y2="144.3"/>
				<line class="st0" x1="308.1" y1="153.5" x2="319.2" y2="153.5"/>
			</g>
		</g>
	</g>
	<g>
		<line class="st0" x1="69.8" y1="175.6" x2="69.8" y2="168.3"/>
		<line class="st0" x1="58.6" y1="175.6" x2="58.6" y2="168.3"/>
	</g>
	<g>
		<line class="st0" x1="278" y1="90.4" x2="262.8" y2="90.4"/>
		<g>
			<path class="st0" d="M275.9,90.4V70.5h-11.1v19.9"/>
			<line class="st0" x1="264.8" y1="78.8" x2="275.9" y2="78.8"/>
			<line class="st0" x1="264.8" y1="87.9" x2="275.9" y2="87.9"/>
		</g>
	</g>
	<g>
		<line class="st0" x1="299.7" y1="90.4" x2="284.5" y2="90.4"/>
		<g>
			<polyline class="st0" points="297.6,90.4 297.6,70.5 286.5,70.5 286.5,90.4 			"/>
			<line class="st0" x1="286.4" y1="78.8" x2="297.6" y2="78.8"/>
			<line class="st0" x1="286.4" y1="87.9" x2="297.6" y2="87.9"/>
		</g>
	</g>
	<g>
		<line class="st0" x1="321.4" y1="90.4" x2="306.1" y2="90.4"/>
		<g>
			<path class="st0" d="M319.3,90.4V70.5h-11.1v19.9"/>
			<line class="st0" x1="308.1" y1="78.8" x2="319.2" y2="78.8"/>
			<line class="st0" x1="308.1" y1="82.4" x2="319.2" y2="82.4"/>
			<rect x="310.8" y="84.7" class="st0" width="5.7" height="3.2"/>
		</g>
	</g>
	<path class="st0" d="M277.8,68.3c-2.4-0.6-4.9-0.9-7.4-0.9c-2.5,0-5,0.3-7.4,0.9"/>
	<g>
		<path class="st0" d="M261.1,129.1c3-0.7,6.1-1.1,9.3-1.1c3.2,0,6.3,0.4,9.3,1.1l0.9-3.7c-3.3-0.8-6.7-1.2-10.1-1.2
			c-3.5,0-6.9,0.4-10.1,1.2L261.1,129.1z"/>
	</g>
	<path class="st0" d="M321.1,68.3c-2.4-0.6-4.9-0.9-7.4-0.9c-2.5,0-5,0.3-7.4,0.9"/>
	<path class="st0" d="M299.4,68.3c-2.4-0.6-4.9-0.9-7.4-0.9c-2.5,0-5,0.3-7.4,0.9"/>
	<polyline class="st0" points="279.6,125.7 328.9,125.7 328.9,128.6 279.6,128.6 	"/>
	<polyline class="st0" points="261,128.6 253.8,128.6 253.8,125.7 261,125.7 	"/>
	<rect x="253.8" y="56.5" class="st0" width="75.1" height="2.9"/>
	<rect x="252.7" y="35.8" class="st0" width="77.3" height="3.8"/>
	<g>
		<line class="st0" x1="258.9" y1="94.6" x2="258.9" y2="97.8"/>
		<line class="st0" x1="262.3" y1="94.6" x2="262.3" y2="97.8"/>
		<line class="st0" x1="265.7" y1="94.6" x2="265.7" y2="97.8"/>
		<line class="st0" x1="269.2" y1="94.6" x2="269.2" y2="97.8"/>
		<line class="st0" x1="272.6" y1="94.6" x2="272.6" y2="97.8"/>
		<line class="st0" x1="276" y1="94.6" x2="276" y2="97.8"/>
		<line class="st0" x1="279.4" y1="94.6" x2="279.4" y2="97.8"/>
		<line class="st0" x1="282.8" y1="94.6" x2="282.8" y2="97.8"/>
		<line class="st0" x1="286.2" y1="94.6" x2="286.2" y2="97.8"/>
		<line class="st0" x1="289.6" y1="94.6" x2="289.6" y2="97.8"/>
		<line class="st0" x1="293" y1="94.6" x2="293" y2="97.8"/>
		<line class="st0" x1="296.4" y1="94.6" x2="296.4" y2="97.8"/>
		<line class="st0" x1="299.9" y1="94.6" x2="299.9" y2="97.8"/>
		<line class="st0" x1="303.3" y1="94.6" x2="303.3" y2="97.8"/>
		<line class="st0" x1="306.7" y1="94.6" x2="306.7" y2="97.8"/>
		<line class="st0" x1="310.1" y1="94.6" x2="310.1" y2="97.8"/>
		<line class="st0" x1="313.5" y1="94.6" x2="313.5" y2="97.8"/>
		<line class="st0" x1="316.9" y1="94.6" x2="316.9" y2="97.8"/>
		<line class="st0" x1="320.3" y1="94.6" x2="320.3" y2="97.8"/>
		<line class="st0" x1="323.7" y1="94.6" x2="323.7" y2="97.8"/>
	</g>
	<g>
		<line class="st0" x1="258.9" y1="40" x2="258.9" y2="43.2"/>
		<line class="st0" x1="262.3" y1="40" x2="262.3" y2="43.2"/>
		<line class="st0" x1="265.7" y1="40" x2="265.7" y2="43.2"/>
		<line class="st0" x1="269.2" y1="40" x2="269.2" y2="43.2"/>
		<line class="st0" x1="272.6" y1="40" x2="272.6" y2="43.2"/>
		<line class="st0" x1="276" y1="40" x2="276" y2="43.2"/>
		<line class="st0" x1="279.4" y1="40" x2="279.4" y2="43.2"/>
		<line class="st0" x1="282.8" y1="40" x2="282.8" y2="43.2"/>
		<line class="st0" x1="286.2" y1="40" x2="286.2" y2="43.2"/>
		<line class="st0" x1="289.6" y1="40" x2="289.6" y2="43.2"/>
		<line class="st0" x1="293" y1="40" x2="293" y2="43.2"/>
		<line class="st0" x1="296.4" y1="40" x2="296.4" y2="43.2"/>
		<line class="st0" x1="299.9" y1="40" x2="299.9" y2="43.2"/>
		<line class="st0" x1="303.3" y1="40" x2="303.3" y2="43.2"/>
		<line class="st0" x1="306.7" y1="40" x2="306.7" y2="43.2"/>
		<line class="st0" x1="310.1" y1="40" x2="310.1" y2="43.2"/>
		<line class="st0" x1="313.5" y1="40" x2="313.5" y2="43.2"/>
		<line class="st0" x1="316.9" y1="40" x2="316.9" y2="43.2"/>
		<line class="st0" x1="320.3" y1="40" x2="320.3" y2="43.2"/>
		<line class="st0" x1="323.7" y1="40" x2="323.7" y2="43.2"/>
	</g>
	<line class="st0" x1="255.5" y1="61.7" x2="327.1" y2="61.7"/>
	<line class="st0" x1="279.6" y1="131.2" x2="327.1" y2="131.2"/>
	<line class="st0" x1="255.5" y1="131.2" x2="261" y2="131.2"/>
	<line class="st0" x1="279.6" y1="162.5" x2="327.1" y2="162.5"/>
	<line class="st0" x1="255.6" y1="162.5" x2="261" y2="162.5"/>
	<rect x="264.8" y="46.8" class="st0" width="54.5" height="6.4"/>
	<path class="st0" d="M276.4,20.2c0,1.4-1.1,2.5-2.5,2.5h-7.1c-1.4,0-2.5-1.1-2.5-2.5c0-1.4,1.1-2.5,2.5-2.5h7.1
		C275.3,17.8,276.4,18.9,276.4,20.2z"/>
	<line class="st0" x1="270.3" y1="22.7" x2="270.3" y2="35.8"/>
	<line class="st0" x1="264.4" y1="25.8" x2="276.4" y2="25.8"/>
	<g>
		<polyline class="st0" points="312.5,35.8 312.5,30.6 319.2,30.6 319.2,35.8 		"/>
		<line class="st0" x1="314.4" y1="30.6" x2="314.4" y2="28.3"/>
		<line class="st0" x1="317.3" y1="30.6" x2="317.3" y2="28.3"/>
	</g>
	<g>
		<polyline class="st0" points="211.7,38.6 211.7,30.6 218.5,30.6 218.5,38.6 		"/>
		<line class="st0" x1="213.9" y1="33.2" x2="216.2" y2="33.2"/>
	</g>
	<g>
		<polyline class="st0" points="146.8,38.6 146.8,30.6 153.6,30.6 153.6,38.6 		"/>
		<line class="st0" x1="149.1" y1="33.2" x2="151.4" y2="33.2"/>
	</g>
	<line class="st0" x1="270.3" y1="141.9" x2="270.3" y2="136"/>
	<line class="st0" x1="270.3" y1="152.1" x2="270.3" y2="150.7"/>
	<line class="st0" x1="261" y1="166.4" x2="261" y2="128.6"/>
	<line class="st0" x1="279.6" y1="166.4" x2="279.6" y2="128.6"/>
	<line class="st0" x1="262.8" y1="136" x2="259.1" y2="136"/>
	<line class="st0" x1="281.5" y1="136" x2="277.8" y2="136"/>
	<polyline class="st0" points="277.3,175.2 277.3,166.4 281.9,166.4 281.9,175.2 	"/>
	<polyline class="st0" points="258.7,175.2 258.7,166.4 263.3,166.4 263.3,175.2 	"/>
	<line class="st0" x1="263.3" y1="166.4" x2="277.3" y2="166.4"/>
	<g>
		<line class="st0" x1="264.8" y1="168.8" x2="275.9" y2="168.8"/>
		<line class="st0" x1="264.8" y1="171.1" x2="275.9" y2="171.1"/>
		<line class="st0" x1="264.8" y1="173.4" x2="275.9" y2="173.4"/>
	</g>
	<path class="st0" d="M272,132.2c0-0.9-0.8-1.7-1.7-1.7c-0.9,0-1.7,0.8-1.7,1.7c0,0.9,0.8,1.7,1.7,1.7
		C271.2,133.9,272,133.1,272,132.2z"/>
	<rect x="267.3" y="144.8" class="st0" width="6" height="17.8"/>
	<line class="st0" x1="212.7" y1="168.3" x2="218.5" y2="168.3"/>
	<line class="st0" x1="189.6" y1="168.3" x2="193.7" y2="168.3"/>
	<line class="st0" x1="146.6" y1="168.3" x2="152.8" y2="168.3"/>
	<g>
		<line class="st0" x1="377.9" y1="142.8" x2="379" y2="143.8"/>
		<line class="st0" x1="374.5" y1="147.3" x2="375.6" y2="148.4"/>
		<line class="st0" x1="375.6" y1="151.6" x2="376.6" y2="152.7"/>
		<line class="st0" x1="365.3" y1="129.8" x2="366.4" y2="130.8"/>
		<line class="st0" x1="364.8" y1="152.5" x2="365.8" y2="153.6"/>
		<line class="st0" x1="349.7" y1="141.2" x2="350.8" y2="142.3"/>
		<line class="st0" x1="350.2" y1="154.1" x2="349.1" y2="153"/>
		<line class="st0" x1="362.3" y1="145.5" x2="361.3" y2="144.4"/>
		<path class="st0" d="M371.3,134.7c0-5.1-4.1-9.2-9.2-9.2c-5.1,0-9.2,4.1-9.2,9.2c-6.4,0-11.6,5.2-11.6,11.6
			c0,6.4,5.2,11.6,11.6,11.6h18.3c6.4,0,11.6-5.2,11.6-11.6C383,139.9,377.8,134.7,371.3,134.7z"/>
		<line class="st0" x1="362.2" y1="176" x2="362.2" y2="158"/>
		<path class="st0" d="M371.5,158.1c-0.3,2.6-2,5.1-4.6,6.5l0,0c-1.5,0.9-3.2,1.3-4.7,1.3"/>
		<path class="st0" d="M361.8,161.5c-3,1.1-6.4-0.5-7.4-3.5l0,0"/>
		<path class="st0" d="M365.3,158c-0.1,2.5,1.9,4.6,4.4,4.7l0,0"/>
	</g>
	<g>
		<g>
			<path class="st0" d="M316.6,165c-1.7,0-3.1,1.1-3.6,2.6c-0.5-1.5-1.9-2.6-3.6-2.6c-1.3,0-2.4,0.6-3.1,1.6c-0.7-1-1.8-1.6-3.1-1.6
				c-0.7,0-1.3,0.2-1.9,0.5c-0.6-0.3-1.2-0.5-1.9-0.5c-2.1,0-3.8,1.7-3.8,3.8c0,2.1,1.7,3.8,3.8,3.8c0.7,0,1.3-0.2,1.9-0.5
				c0.6,0.3,1.2,0.5,1.9,0.5c1.3,0,2.4-0.6,3.1-1.6c0.7,1,1.8,1.6,3.1,1.6c1.7,0,3.1-1.1,3.6-2.6c0.5,1.5,1.9,2.6,3.6,2.6
				c2.1,0,3.8-1.7,3.8-3.8C320.5,166.7,318.7,165,316.6,165z"/>
			<path class="st0" d="M295.6,168.8c0,2.1-1.7,3.8-3.8,3.8c-2.1,0-3.8-1.7-3.8-3.8c0-2.1,1.7-3.8,3.8-3.8
				C293.9,165,295.6,166.7,295.6,168.8z"/>
		</g>
		<line class="st0" x1="291.8" y1="170.2" x2="291.8" y2="175.8"/>
		<line class="st0" x1="309.7" y1="170.2" x2="309.7" y2="175.8"/>
		<line class="st0" x1="316.5" y1="172.6" x2="316.5" y2="175.8"/>
		<line class="st0" x1="303.7" y1="172.6" x2="303.7" y2="175.8"/>
		<line class="st0" x1="299.2" y1="172.6" x2="299.2" y2="175.8"/>
	</g>
	<g>
		<path class="st0" d="M36.6,166.7c-2.4,0-4.4,2-4.4,4.4c0,2.4,2,4.4,4.4,4.4c2.4,0,4.4-2,4.4-4.4C41,168.6,39,166.7,36.6,166.7
			L36.6,166.7z"/>
		<path class="st0" d="M20.6,166.7c-2.4,0-4.4,2-4.4,4.4c0,2.4,2,4.4,4.4,4.4c2.4,0,4.4-2,4.4-4.4C25.1,168.6,23.1,166.7,20.6,166.7
			L20.6,166.7z"/>
		<path class="st0" d="M33.1,161.8h1.8c0.6,0,1.2,0.5,1.2,1.2s-0.5,1.2-1.2,1.2"/>
		<g>
			<g>
				<polyline class="st0" points="32.6,164.2 28.6,171.1 20.6,171.1 24.6,164.2 32.6,164.2 36.6,171.1 				"/>
			</g>
			<line class="st0" x1="28.6" y1="171.1" x2="23.3" y2="161.8"/>
		</g>
		<line class="st0" x1="24.6" y1="161.8" x2="21.9" y2="161.8"/>
	</g>
	<path class="st0" d="M283,8.6c0.5-0.7,1.3-0.9,1.8-0.9c0.1,0,0.2,0,0.3,0c0.9,0,3-0.1,4.1-1.1c0.1-0.1,0.2-0.2,0.3-0.3
		c0.1,0.1,0.2,0.2,0.3,0.3c1.1,1.1,3.2,1.1,4.1,1.1c0.1,0,0.3,0,0.3,0c0.6,0,1.3,0.2,1.8,0.9"/>
	<path class="st0" d="M309.9,17.3c-0.3,0.5-0.9,0.7-1.5,0.7l0,0l-3.3-0.1c-0.6,0-1.5,0.3-1.9,0.8L303,19l-0.2-0.2
		c-0.4-0.4-1.3-0.8-1.9-0.8l0,0l-3.3,0.1c-0.6,0-1.1-0.3-1.4-0.7"/>
	<g>
		<line class="st0" x1="65.7" y1="91.3" x2="74.8" y2="91.3"/>
		<line class="st0" x1="59.3" y1="91.3" x2="62.4" y2="91.3"/>
	</g>
	<line class="st0" x1="74.8" y1="87.9" x2="48" y2="87.9"/>
	<line class="st0" x1="149.7" y1="57.9" x2="153.9" y2="57.9"/>
	<line class="st0" x1="168" y1="57.9" x2="175.6" y2="57.9"/>
	<line class="st0" x1="189.6" y1="57.9" x2="197.2" y2="57.9"/>
	<line class="st0" x1="211.4" y1="57.9" x2="215.6" y2="57.9"/>
	<g>
		<line class="st0" x1="99.8" y1="102" x2="99.8" y2="105.8"/>
		<line class="st0" x1="121.8" y1="102" x2="121.8" y2="105.8"/>
	</g>
	<g>
		<line class="st0" x1="99.8" y1="55.9" x2="99.8" y2="59.8"/>
		<line class="st0" x1="121.8" y1="55.9" x2="121.8" y2="59.8"/>
	</g>
	<line class="st0" x1="110.8" y1="115.1" x2="110.8" y2="132.3"/>
</g>
</svg>
